<mxfile host="app.diagrams.net" agent="Mozilla/5.0 (Windows NT 10.0; Win64; x64) AppleWebKit/537.36 (KHTML, like Gecko) Chrome/129.0.0.0 Safari/537.36 Edg/129.0.0.0" version="24.7.16">
  <diagram name="第 1 页" id="f-sgTqO7pKYLbgl6jEfq">
    <mxGraphModel dx="786" dy="463" grid="1" gridSize="10" guides="1" tooltips="1" connect="1" arrows="1" fold="1" page="1" pageScale="1" pageWidth="827" pageHeight="1169" math="0" shadow="0">
      <root>
        <mxCell id="0" />
        <mxCell id="1" parent="0" />
        <mxCell id="jPKLD2Jk6BNRcp35GD36-1" value="销售员" style="swimlane;fontStyle=0;childLayout=stackLayout;horizontal=1;startSize=30;horizontalStack=0;resizeParent=1;resizeParentMax=0;resizeLast=0;collapsible=1;marginBottom=0;whiteSpace=wrap;html=1;" vertex="1" parent="1">
          <mxGeometry x="121" y="100" width="160" height="110" as="geometry" />
        </mxCell>
        <mxCell id="jPKLD2Jk6BNRcp35GD36-2" value="发票申请单&lt;div&gt;（从销售订单明细调用开票明细）&lt;/div&gt;" style="text;strokeColor=none;fillColor=none;align=left;verticalAlign=middle;spacingLeft=4;spacingRight=4;overflow=hidden;points=[[0,0.5],[1,0.5]];portConstraint=eastwest;rotatable=0;whiteSpace=wrap;html=1;" vertex="1" parent="jPKLD2Jk6BNRcp35GD36-1">
          <mxGeometry y="30" width="160" height="80" as="geometry" />
        </mxCell>
        <mxCell id="jPKLD2Jk6BNRcp35GD36-12" style="edgeStyle=orthogonalEdgeStyle;rounded=0;orthogonalLoop=1;jettySize=auto;html=1;exitX=0.5;exitY=1;exitDx=0;exitDy=0;exitPerimeter=0;" edge="1" parent="1" source="jPKLD2Jk6BNRcp35GD36-5" target="jPKLD2Jk6BNRcp35GD36-7">
          <mxGeometry relative="1" as="geometry" />
        </mxCell>
        <mxCell id="jPKLD2Jk6BNRcp35GD36-5" value="开票总金额-已出货金额" style="strokeWidth=2;html=1;shape=mxgraph.flowchart.decision;whiteSpace=wrap;" vertex="1" parent="1">
          <mxGeometry x="116" y="280" width="170" height="100" as="geometry" />
        </mxCell>
        <mxCell id="jPKLD2Jk6BNRcp35GD36-13" style="edgeStyle=orthogonalEdgeStyle;rounded=0;orthogonalLoop=1;jettySize=auto;html=1;exitX=0.5;exitY=1;exitDx=0;exitDy=0;entryX=0.5;entryY=0;entryDx=0;entryDy=0;" edge="1" parent="1" source="jPKLD2Jk6BNRcp35GD36-7" target="jPKLD2Jk6BNRcp35GD36-8">
          <mxGeometry relative="1" as="geometry" />
        </mxCell>
        <mxCell id="jPKLD2Jk6BNRcp35GD36-15" style="edgeStyle=orthogonalEdgeStyle;rounded=0;orthogonalLoop=1;jettySize=auto;html=1;exitX=0;exitY=0.5;exitDx=0;exitDy=0;entryX=0;entryY=0.5;entryDx=0;entryDy=0;" edge="1" parent="1" source="jPKLD2Jk6BNRcp35GD36-7" target="jPKLD2Jk6BNRcp35GD36-2">
          <mxGeometry relative="1" as="geometry" />
        </mxCell>
        <mxCell id="jPKLD2Jk6BNRcp35GD36-7" value="开票员" style="rounded=1;whiteSpace=wrap;html=1;absoluteArcSize=1;arcSize=14;strokeWidth=2;" vertex="1" parent="1">
          <mxGeometry x="116" y="450" width="170" height="50" as="geometry" />
        </mxCell>
        <mxCell id="jPKLD2Jk6BNRcp35GD36-8" value="邮件发出电子票" style="rounded=1;whiteSpace=wrap;html=1;absoluteArcSize=1;arcSize=14;strokeWidth=2;" vertex="1" parent="1">
          <mxGeometry x="116" y="550" width="170" height="50" as="geometry" />
        </mxCell>
        <mxCell id="jPKLD2Jk6BNRcp35GD36-9" value="" style="strokeWidth=2;html=1;shape=mxgraph.flowchart.terminator;whiteSpace=wrap;" vertex="1" parent="1">
          <mxGeometry x="136.5" y="650" width="129" height="60" as="geometry" />
        </mxCell>
        <mxCell id="jPKLD2Jk6BNRcp35GD36-17" style="edgeStyle=orthogonalEdgeStyle;rounded=0;orthogonalLoop=1;jettySize=auto;html=1;exitX=0.5;exitY=1;exitDx=0;exitDy=0;exitPerimeter=0;entryX=1;entryY=0.5;entryDx=0;entryDy=0;" edge="1" parent="1" source="jPKLD2Jk6BNRcp35GD36-10" target="jPKLD2Jk6BNRcp35GD36-7">
          <mxGeometry relative="1" as="geometry" />
        </mxCell>
        <mxCell id="jPKLD2Jk6BNRcp35GD36-10" value="财务经理审核" style="strokeWidth=2;html=1;shape=mxgraph.flowchart.decision;whiteSpace=wrap;" vertex="1" parent="1">
          <mxGeometry x="430" y="280" width="170" height="100" as="geometry" />
        </mxCell>
        <mxCell id="jPKLD2Jk6BNRcp35GD36-11" style="edgeStyle=orthogonalEdgeStyle;rounded=0;orthogonalLoop=1;jettySize=auto;html=1;entryX=0.5;entryY=0;entryDx=0;entryDy=0;entryPerimeter=0;" edge="1" parent="1" source="jPKLD2Jk6BNRcp35GD36-1" target="jPKLD2Jk6BNRcp35GD36-5">
          <mxGeometry relative="1" as="geometry" />
        </mxCell>
        <mxCell id="jPKLD2Jk6BNRcp35GD36-14" style="edgeStyle=orthogonalEdgeStyle;rounded=0;orthogonalLoop=1;jettySize=auto;html=1;exitX=0.5;exitY=1;exitDx=0;exitDy=0;entryX=0.5;entryY=0;entryDx=0;entryDy=0;entryPerimeter=0;" edge="1" parent="1" source="jPKLD2Jk6BNRcp35GD36-8" target="jPKLD2Jk6BNRcp35GD36-9">
          <mxGeometry relative="1" as="geometry" />
        </mxCell>
        <mxCell id="jPKLD2Jk6BNRcp35GD36-16" style="edgeStyle=orthogonalEdgeStyle;rounded=0;orthogonalLoop=1;jettySize=auto;html=1;exitX=1;exitY=0.5;exitDx=0;exitDy=0;exitPerimeter=0;entryX=0;entryY=0.5;entryDx=0;entryDy=0;entryPerimeter=0;" edge="1" parent="1" source="jPKLD2Jk6BNRcp35GD36-5" target="jPKLD2Jk6BNRcp35GD36-10">
          <mxGeometry relative="1" as="geometry" />
        </mxCell>
        <mxCell id="jPKLD2Jk6BNRcp35GD36-18" value="&amp;gt; 1万元" style="text;html=1;align=center;verticalAlign=middle;resizable=0;points=[];autosize=1;strokeColor=none;fillColor=none;" vertex="1" parent="1">
          <mxGeometry x="330" y="290" width="60" height="30" as="geometry" />
        </mxCell>
        <mxCell id="jPKLD2Jk6BNRcp35GD36-19" value="&amp;lt; 1万元" style="text;html=1;align=center;verticalAlign=middle;resizable=0;points=[];autosize=1;strokeColor=none;fillColor=none;" vertex="1" parent="1">
          <mxGeometry x="205.5" y="400" width="60" height="30" as="geometry" />
        </mxCell>
      </root>
    </mxGraphModel>
  </diagram>
</mxfile>
